<?xml version="1.0" standalone="no"?>
<!DOCTYPE svg PUBLIC "-//W3C//DTD SVG 20010904//EN"
 "http://www.w3.org/TR/2001/REC-SVG-20010904/DTD/svg10.dtd">
<svg version="1.0" xmlns="http://www.w3.org/2000/svg"
 width="1080.000000pt" height="1080.000000pt" viewBox="0 0 1080.000000 1080.000000"
 preserveAspectRatio="xMidYMid meet">
<metadata>
Created by potrace 1.14, written by Peter Selinger 2001-2017
</metadata>
<g transform="translate(0.000000,1080.000000) scale(0.100000,-0.100000)"
fill="#000000" stroke="none">
<path d="M5326 8077 c3 -10 1 -17 -5 -17 -6 0 -11 5 -11 11 0 5 -5 7 -10 4 -6
-4 -8 -11 -5 -16 3 -5 -1 -6 -9 -3 -9 3 -13 11 -10 18 3 6 -2 2 -10 -8 -12
-15 -16 -16 -16 -5 0 12 -2 12 -9 0 -7 -11 -9 -11 -13 0 -4 12 -8 12 -20 1
-13 -10 -17 -10 -21 0 -4 9 -6 7 -6 -4 -1 -9 -6 -20 -13 -24 -6 -4 -8 -3 -4 4
3 6 2 13 -4 17 -5 3 -10 1 -10 -5 0 -6 -4 -9 -9 -6 -5 4 -21 2 -35 -3 -21 -9
-24 -8 -19 7 5 14 3 14 -9 -2 -8 -10 -19 -16 -25 -13 -6 4 -19 0 -29 -8 -10
-8 -23 -14 -29 -15 -5 0 -3 5 5 10 23 15 -19 7 -49 -9 -14 -8 -21 -9 -17 -2 4
6 2 11 -3 11 -6 0 -11 -8 -11 -17 0 -15 -2 -16 -10 -3 -9 13 -10 13 -10 0 0
-13 -1 -13 -10 0 -8 12 -10 12 -16 -3 -5 -15 -9 -15 -22 -5 -11 9 -13 9 -9 1
4 -6 3 -14 -3 -18 -5 -3 -10 -1 -10 6 0 8 -4 9 -13 0 -10 -8 -17 -7 -26 2 -10
9 -12 9 -9 -2 2 -7 -3 -16 -11 -19 -9 -3 -11 0 -7 9 4 8 0 5 -8 -5 -11 -14
-16 -15 -16 -6 0 9 -5 8 -16 -6 -8 -10 -13 -13 -9 -6 9 18 -13 15 -23 -4 -6
-11 -11 -13 -16 -5 -4 6 -13 11 -19 11 -7 0 -6 -4 3 -10 12 -8 11 -10 -6 -10
-11 0 -26 -6 -33 -12 -11 -11 -12 -10 -6 2 5 8 -4 4 -20 -10 -16 -14 -25 -20
-22 -14 3 6 -1 11 -9 11 -8 0 -13 -6 -10 -13 3 -9 -3 -11 -20 -8 -18 3 -24 0
-24 -13 0 -15 -2 -16 -10 -3 -7 11 -10 11 -10 2 0 -7 -4 -10 -10 -7 -5 3 -10
1 -10 -5 0 -6 -4 -8 -10 -5 -5 3 -10 -2 -10 -12 0 -10 -4 -14 -8 -8 -12 17
-41 14 -34 -4 5 -14 4 -14 -12 -2 -15 12 -17 12 -14 0 2 -9 -5 -14 -18 -13
-14 0 -20 -4 -17 -13 6 -17 -9 -17 -26 0 -10 10 -11 9 -6 -5 5 -13 2 -16 -14
-13 -12 2 -20 -1 -18 -8 1 -6 -3 -11 -10 -12 -7 0 -19 -9 -28 -20 l-17 -20 6
20 c6 20 6 20 -11 0 -10 -11 -25 -20 -33 -20 -8 0 -23 -8 -32 -19 -10 -10 -18
-15 -18 -11 0 5 -7 0 -16 -11 -8 -10 -13 -12 -9 -4 5 12 4 12 -7 -1 -13 -16
-19 -19 -39 -19 -5 0 -8 -4 -4 -9 3 -6 -4 -8 -16 -6 -12 2 -19 2 -16 -1 8 -8
-16 -33 -25 -27 -5 2 -8 -1 -8 -7 0 -6 -4 -8 -10 -5 -5 3 -10 -1 -10 -9 0 -10
-6 -13 -15 -10 -11 4 -15 -1 -15 -17 0 -13 -4 -19 -8 -14 -9 13 -35 18 -27 5
3 -5 1 -10 -5 -10 -6 0 -8 -5 -5 -10 4 -6 3 -10 -2 -9 -14 4 -43 -13 -38 -21
3 -4 -2 -11 -11 -14 -10 -4 -13 -2 -8 7 4 6 -6 -1 -22 -18 -16 -16 -27 -34
-26 -39 2 -5 -5 -3 -14 5 -10 8 -15 9 -11 3 4 -7 0 -15 -9 -18 -10 -4 -14 -12
-10 -22 5 -14 4 -15 -9 -4 -11 9 -15 9 -15 1 0 -7 -5 -9 -12 -5 -8 5 -9 2 -5
-9 6 -15 -3 -22 -25 -18 -5 0 -8 -4 -8 -10 0 -5 -4 -8 -9 -4 -5 3 -13 0 -17
-6 -4 -8 -3 -9 4 -5 7 4 12 1 12 -8 0 -9 -5 -15 -12 -14 -7 2 -12 -2 -13 -9 0
-6 -4 -15 -9 -20 -5 -5 -6 -3 -2 5 4 6 2 12 -3 12 -10 0 -15 -13 -13 -31 1 -4
-6 -6 -16 -5 -9 0 -16 -5 -14 -11 1 -7 -3 -13 -9 -13 -5 0 -7 -4 -4 -10 4 -6
-1 -7 -11 -3 -12 4 -15 3 -10 -5 6 -11 -5 -16 -26 -13 -4 0 -5 -5 -2 -13 3 -8
-2 -20 -11 -27 -8 -8 -22 -20 -30 -27 -12 -10 -15 -11 -15 -1 0 7 -3 9 -6 6
-4 -4 -1 -14 7 -24 9 -11 10 -14 2 -9 -7 4 -13 2 -13 -3 0 -6 -8 -11 -17 -11
-15 0 -16 -2 -3 -10 13 -9 7 -14 -12 -11 -5 0 -8 -6 -8 -14 0 -14 -13 -20 -34
-16 -5 1 -4 -5 4 -13 10 -13 10 -16 -3 -16 -11 0 -15 -7 -12 -21 4 -18 2 -19
-11 -8 -8 7 -14 8 -13 3 4 -20 -2 -35 -11 -29 -5 3 -7 0 -4 -8 3 -8 0 -18 -7
-23 -8 -5 -10 -3 -4 6 5 9 4 11 -4 6 -9 -6 -9 -11 0 -22 10 -12 9 -13 -6 -8
-13 5 -16 4 -11 -4 4 -7 2 -12 -4 -12 -7 0 -10 -7 -7 -14 4 -10 1 -13 -8 -10
-10 4 -13 0 -10 -15 3 -15 0 -18 -12 -14 -13 5 -15 2 -11 -15 4 -14 -2 -27
-18 -41 -13 -12 -24 -28 -24 -36 0 -8 -4 -15 -9 -15 -5 0 -11 -9 -14 -21 -3
-12 -10 -18 -16 -14 -14 8 -14 -1 -1 -25 9 -16 8 -18 -7 -13 -12 5 -15 2 -10
-10 3 -9 2 -17 -4 -17 -6 0 -7 -6 -3 -12 6 -10 5 -10 -7 -1 -12 10 -15 8 -16
-8 -1 -12 3 -17 10 -13 7 3 3 -2 -7 -10 -11 -9 -14 -16 -7 -16 7 0 9 -5 6 -10
-4 -6 -10 -8 -15 -5 -13 8 -21 -26 -10 -40 9 -11 6 -12 -12 -8 -18 4 -20 3 -8
-6 10 -7 11 -11 3 -11 -7 0 -13 -9 -13 -21 0 -11 -4 -18 -9 -15 -4 3 -8 -7 -7
-22 1 -20 -4 -27 -18 -25 -12 1 -15 -2 -8 -9 13 -13 3 -40 -12 -31 -6 3 -8 3
-4 -2 4 -4 2 -15 -5 -23 -9 -13 -9 -14 1 -8 6 4 12 2 12 -3 0 -6 -5 -11 -10
-11 -6 0 -9 -3 -8 -7 1 -9 -9 -40 -23 -67 -8 -14 -8 -16 3 -10 11 6 11 5 0 -9
-8 -9 -10 -22 -6 -28 5 -9 2 -10 -11 -5 -16 6 -16 4 -4 -11 12 -15 12 -16 -4
-10 -13 5 -16 3 -10 -6 11 -17 13 -38 3 -32 -13 8 -21 -25 -10 -45 13 -24 13
-40 0 -20 -8 13 -10 12 -11 -5 -1 -11 -1 -26 0 -32 1 -7 -3 -13 -9 -13 -12 0
-9 -22 5 -32 6 -4 2 -8 -9 -8 -12 0 -16 -5 -12 -16 3 -8 1 -25 -5 -36 -9 -16
-8 -19 3 -12 11 7 11 5 0 -9 -8 -9 -11 -21 -7 -27 3 -5 -1 -10 -10 -10 -9 0
-13 -5 -10 -10 4 -6 12 -7 18 -3 7 3 4 -3 -6 -14 -13 -14 -15 -23 -7 -28 8 -5
8 -10 0 -20 -7 -8 -9 -19 -5 -25 3 -5 1 -10 -6 -10 -8 0 -7 -5 2 -17 11 -13
11 -15 1 -9 -10 6 -13 3 -11 -10 2 -11 0 -25 -4 -31 -5 -8 -3 -13 5 -13 8 0 6
-5 -5 -11 -14 -8 -16 -14 -6 -25 7 -9 8 -14 1 -14 -6 0 -9 -21 -7 -55 3 -41 0
-53 -8 -48 -8 4 -7 1 1 -9 10 -12 10 -18 1 -23 -8 -6 -7 -10 2 -16 11 -7 11
-9 -1 -9 -13 0 -13 -1 0 -10 11 -7 11 -10 2 -10 -8 0 -10 -5 -5 -12 13 -23 12
-38 -5 -38 -13 0 -12 -3 4 -16 10 -8 13 -13 7 -9 -7 3 -13 1 -13 -4 0 -6 6
-11 13 -11 7 0 8 -3 2 -8 -16 -11 -19 -45 -3 -37 10 6 11 5 1 -6 -15 -15 -17
-33 -4 -25 11 7 9 -13 -2 -31 -5 -8 -4 -13 2 -13 6 0 11 -5 11 -11 0 -5 -6 -7
-12 -3 -9 5 -9 2 1 -9 7 -9 10 -17 6 -17 -4 0 -1 -8 6 -17 10 -11 10 -14 2 -9
-16 9 -17 -6 -2 -21 8 -8 7 -13 -2 -18 -8 -6 -10 -4 -4 5 5 9 4 11 -3 6 -9 -5
-7 -15 6 -34 9 -14 11 -23 5 -19 -17 11 -17 -15 -1 -31 10 -10 10 -15 0 -21
-11 -6 -10 -10 4 -15 16 -6 15 -8 -2 -28 -11 -12 -14 -18 -7 -14 7 4 17 -3 24
-16 11 -20 10 -21 -3 -10 -13 10 -15 9 -10 -13 2 -14 8 -22 13 -19 5 3 6 -2 3
-11 -4 -8 -1 -22 6 -30 10 -12 10 -18 1 -29 -9 -11 -9 -16 0 -22 8 -5 9 -3 4
6 -5 9 -4 11 3 6 8 -4 8 -15 2 -31 -6 -17 -6 -24 1 -22 10 2 17 -28 22 -88 1
-11 8 -26 15 -33 7 -8 9 -18 6 -23 -3 -6 2 -20 13 -32 14 -17 15 -19 1 -9 -15
12 -17 11 -15 -7 1 -12 8 -21 17 -21 12 0 12 -2 2 -9 -10 -6 -10 -10 3 -21 8
-7 15 -18 15 -24 0 -6 -5 -4 -10 4 -6 9 -10 10 -10 3 0 -6 5 -15 10 -18 6 -3
10 -17 10 -31 0 -13 5 -24 11 -24 8 0 7 -6 -2 -17 -8 -9 -9 -14 -4 -11 6 4 17
3 25 -3 8 -5 10 -9 4 -9 -6 0 -11 -7 -11 -15 0 -11 4 -12 14 -3 11 9 12 7 7
-7 -5 -13 -4 -16 5 -10 10 6 11 3 1 -15 -7 -12 -8 -20 -3 -17 4 3 13 -1 20 -8
10 -11 10 -15 0 -18 -7 -3 -4 -6 6 -6 9 -1 17 -5 17 -11 0 -5 -8 -7 -17 -3
-12 4 -10 -1 7 -16 14 -12 19 -19 11 -15 -10 5 -12 3 -7 -5 5 -7 14 -10 22 -7
11 4 10 -1 -3 -22 -17 -27 -17 -27 2 -12 11 8 17 10 12 5 -4 -4 0 -19 9 -33 9
-13 12 -22 6 -18 -18 11 -6 -26 12 -39 10 -7 17 -16 17 -19 -3 -21 0 -26 11
-20 7 4 8 3 4 -4 -7 -12 10 -49 34 -70 13 -12 13 -13 0 -6 -13 7 -13 5 -2 -9
8 -9 11 -21 8 -26 -4 -6 5 -8 21 -5 19 3 24 1 14 -5 -10 -6 -11 -13 -2 -30 7
-11 17 -21 24 -21 7 0 6 -4 -3 -10 -8 -5 -10 -10 -4 -10 5 0 19 -7 30 -16 10
-8 12 -13 4 -9 -9 4 -8 1 3 -8 14 -11 15 -16 5 -21 -7 -3 -3 -4 10 -2 12 2 20
0 17 -4 -3 -5 -2 -10 2 -13 5 -2 2 -2 -4 -1 -7 2 -13 -1 -13 -6 0 -6 7 -10 16
-10 10 0 14 -6 10 -15 -5 -14 5 -20 27 -16 4 1 3 -8 -3 -20 -11 -19 -10 -20
12 -14 12 3 19 3 13 -2 -14 -11 -17 -33 -4 -33 5 0 7 -6 3 -12 -6 -10 -5 -10
8 -1 19 17 32 4 15 -15 -10 -13 -9 -15 6 -9 10 4 16 3 12 -2 -3 -6 3 -14 12
-20 14 -8 15 -11 3 -11 -8 0 0 -8 18 -16 17 -9 32 -24 32 -33 0 -9 9 -23 19
-31 11 -7 18 -17 15 -22 -3 -4 -1 -8 4 -8 15 0 92 -76 92 -91 0 -11 3 -11 11
1 9 12 10 11 6 -7 -4 -17 -1 -21 15 -18 14 3 18 0 14 -11 -3 -9 -2 -12 4 -9 6
3 13 -1 16 -9 3 -9 13 -16 21 -16 8 0 12 -4 9 -9 -3 -5 1 -14 9 -21 13 -11 15
-10 10 6 -3 10 1 6 9 -11 8 -16 15 -24 16 -17 0 10 4 10 16 -2 8 -9 21 -13 27
-9 7 4 6 -1 -2 -10 -8 -10 -9 -17 -3 -17 6 0 18 -7 27 -17 14 -14 18 -14 27
-2 7 10 8 8 3 -8 -5 -18 -2 -23 11 -23 9 0 23 -8 31 -17 10 -12 12 -13 8 -3
-4 8 1 6 10 -5 9 -11 21 -19 27 -17 6 2 8 -4 5 -12 -4 -9 -1 -18 5 -22 7 -4 8
-3 4 4 -4 7 -2 12 3 12 6 0 11 -4 11 -10 0 -5 6 -10 14 -10 7 0 20 -8 27 -17
13 -17 13 -17 -6 -3 -18 14 -19 14 -7 -2 15 -18 32 -19 45 -3 5 6 6 2 3 -8 -4
-11 1 -20 12 -24 9 -4 23 -14 30 -22 10 -14 11 -13 6 4 l-5 20 13 -20 c7 -11
20 -21 28 -23 8 -2 23 -10 32 -19 9 -8 22 -12 29 -7 7 4 10 3 6 -3 -6 -10 27
-39 37 -32 3 2 12 -5 21 -16 9 -11 14 -15 11 -8 -4 6 -2 15 4 18 6 4 10 3 9
-2 -1 -4 -1 -15 0 -23 1 -13 2 -13 11 0 8 13 11 13 22 1 11 -12 10 -12 -2 -6
-13 8 -13 7 -1 -8 7 -9 24 -17 38 -17 13 0 22 -4 19 -8 -2 -4 5 -9 17 -9 12
-1 23 -7 25 -13 2 -5 13 -10 23 -10 11 0 18 -4 15 -9 -3 -5 0 -9 7 -8 35 1 57
-4 57 -14 0 -5 -5 -7 -12 -3 -7 4 -8 3 -4 -5 6 -9 11 -9 21 -1 9 8 14 7 18 -2
2 -8 18 -15 33 -16 16 -1 30 -6 32 -12 2 -5 9 -7 16 -4 8 3 21 -2 30 -11 9 -9
16 -13 16 -9 0 3 6 2 13 -3 18 -14 49 -24 43 -14 -4 5 5 4 18 -2 13 -7 22 -16
19 -22 -3 -5 0 -5 7 2 10 9 18 9 34 -2 11 -7 29 -11 39 -10 10 2 14 -1 10 -8
-4 -6 0 -8 9 -5 8 4 21 2 29 -2 8 -6 16 -4 21 3 5 8 8 6 8 -6 0 -10 4 -16 9
-12 6 3 15 -3 21 -12 10 -16 11 -15 6 5 -4 22 -3 23 13 8 19 -17 36 -22 27 -7
-4 5 5 4 18 -2 13 -7 22 -15 20 -19 -2 -3 1 -10 7 -14 8 -4 9 -3 5 4 -5 8 2
12 18 12 14 0 26 -6 26 -12 0 -9 4 -8 10 2 9 13 11 13 20 0 7 -12 13 -13 28
-4 15 10 23 8 42 -6 18 -14 28 -16 37 -8 9 8 13 7 13 -3 0 -10 3 -10 12 -1 7
7 17 12 22 12 6 0 4 -5 -4 -10 -10 -6 93 -9 292 -9 231 0 308 3 311 12 4 8 6
8 6 -2 1 -10 4 -11 15 -2 10 8 16 9 21 1 3 -5 12 -10 18 -10 8 0 8 3 -1 9 -10
6 -9 10 7 14 12 3 18 1 15 -4 -7 -13 46 0 65 15 12 9 13 8 6 -4 -7 -12 -6 -13
6 -3 12 10 18 10 29 0 10 -10 12 -9 7 6 -7 19 9 24 16 5 4 -10 6 -10 6 0 1 7
6 10 11 7 6 -4 18 -1 27 7 10 7 14 8 10 1 -5 -7 0 -9 13 -6 11 3 18 9 15 13
-3 5 0 12 6 16 7 4 9 3 6 -3 -4 -6 0 -14 9 -17 8 -3 12 -2 9 3 -3 5 -1 12 5
16 5 3 10 0 10 -7 0 -9 3 -9 8 -2 4 6 15 12 25 12 45 4 48 6 42 21 -4 13 -2
12 9 -1 14 -19 32 -25 21 -8 -5 9 8 12 31 9 4 0 10 5 15 12 4 7 15 14 23 15 9
1 14 -2 11 -7 -4 -5 1 -6 9 -3 9 3 14 10 11 14 -3 5 6 7 21 5 18 -2 24 1 20
12 -4 9 -2 11 6 7 7 -4 24 -9 37 -10 17 -2 21 0 12 5 -16 10 -3 20 22 16 9 -2
15 1 11 6 -3 5 2 9 11 9 10 0 13 5 9 12 -5 7 -3 8 7 2 23 -14 37 -13 51 4 12
15 11 16 -4 3 -10 -7 -18 -9 -18 -3 0 13 18 19 51 18 18 -1 25 3 22 11 -4 9 0
11 11 7 11 -4 16 -1 16 12 0 11 3 15 8 9 9 -13 27 -13 39 -1 4 5 3 6 -4 2 -6
-3 -14 -2 -17 2 -3 5 5 9 17 9 42 1 47 3 47 21 0 14 2 15 10 2 8 -12 10 -12
16 3 3 9 10 17 16 17 5 0 6 -5 2 -12 -5 -7 -3 -8 5 -4 7 5 10 15 7 23 -3 8 -2
12 3 8 15 -8 42 6 34 19 -4 6 0 6 9 -2 13 -10 18 -10 24 -1 5 8 3 9 -6 4 -9
-6 -11 -4 -6 4 5 7 15 10 23 7 8 -3 11 -1 8 4 -3 6 -1 10 5 10 6 0 8 6 4 13
-4 6 3 3 15 -7 21 -19 21 -19 15 -1 -6 14 -4 16 6 10 10 -6 12 -4 7 9 -6 14
-3 17 9 12 8 -3 25 1 37 9 12 8 17 15 12 15 -6 0 3 7 19 15 15 8 33 12 40 8 7
-4 6 -1 -2 9 -10 12 -9 18 3 28 10 9 15 9 15 1 0 -6 -5 -11 -12 -11 -6 0 -9
-2 -6 -5 7 -7 39 5 34 14 -2 3 2 12 10 19 9 8 14 9 14 2 0 -7 5 -6 14 2 8 7
11 17 8 22 -3 5 2 7 11 3 12 -4 17 -1 17 11 0 15 2 15 10 2 8 -13 10 -12 10 3
0 11 4 15 12 11 8 -5 9 -2 4 11 -6 16 -4 16 11 4 15 -12 16 -12 11 3 -9 22 1
29 25 17 14 -8 18 -8 13 0 -9 13 18 43 29 33 5 -4 6 0 3 8 -4 11 1 16 15 17
11 1 25 7 31 14 8 9 8 10 -1 5 -17 -9 -17 2 0 18 7 7 18 11 26 8 10 -3 12 0 8
11 -4 11 -2 14 9 10 12 -5 19 7 15 29 0 5 2 7 7 7 23 -4 34 3 28 17 -6 15 -4
15 11 3 10 -7 15 -9 11 -5 -5 5 1 15 12 23 11 8 20 20 20 28 0 8 4 17 10 20 5
3 8 0 7 -7 -2 -7 -2 -10 0 -5 3 4 8 5 12 2 5 -2 7 6 6 20 -2 17 1 22 11 18 9
-3 14 0 12 8 -2 8 3 13 10 12 6 -2 12 6 12 17 0 11 3 19 8 17 4 -1 8 2 9 7 1
5 14 17 30 28 19 14 22 18 8 14 -19 -6 -19 -5 -3 7 10 8 15 16 12 20 -3 3 4 8
15 12 12 3 21 11 21 16 0 6 4 7 10 4 6 -3 7 1 4 9 -3 9 -1 17 5 17 6 1 16 2
21 3 12 1 14 15 4 24 -4 4 -4 1 1 -7 6 -10 4 -12 -5 -6 -11 7 -9 12 8 23 12 8
22 21 22 29 0 8 4 12 9 8 9 -5 27 32 23 48 -1 5 2 6 7 3 5 -3 12 1 15 10 3 9
11 12 18 8 9 -5 8 -2 -1 10 -13 15 -12 18 7 23 24 6 29 19 10 26 -10 4 -10 6
0 6 7 1 10 5 7 11 -3 5 0 7 8 4 8 -3 17 2 21 11 4 11 2 14 -7 9 -6 -4 -4 2 6
13 9 11 17 26 17 34 0 12 2 11 10 -1 13 -20 13 -4 0 20 -9 16 -8 18 6 13 11
-4 15 -2 11 4 -4 6 -1 14 5 17 10 5 10 7 1 12 -8 4 -6 11 7 24 12 12 17 26 13
36 -4 11 -3 15 5 10 6 -3 14 -1 18 5 4 7 3 9 -3 6 -6 -4 -13 2 -16 12 -4 15
-1 18 12 14 9 -4 13 -3 9 2 -4 4 -2 15 5 23 9 13 9 14 0 8 -14 -8 -18 6 -6 18
4 4 8 69 8 145 0 119 -2 138 -15 133 -12 -4 -12 -2 -3 8 9 10 9 19 -3 41 -8
16 -11 29 -8 29 4 0 -3 9 -16 20 -15 13 -18 20 -9 20 8 0 10 3 4 8 -21 15 -50
56 -35 48 8 -4 7 -1 -4 8 -11 9 -16 21 -12 32 6 14 4 15 -9 4 -13 -11 -16 -11
-13 1 2 8 -3 13 -11 11 -12 -3 -12 -1 0 14 12 15 12 17 0 13 -8 -3 -29 10 -48
28 -18 19 -37 32 -42 28 -5 -3 -7 5 -4 17 4 19 3 20 -6 8 -7 -10 -11 -11 -11
-2 0 6 -7 12 -16 12 -8 0 -13 4 -10 9 3 5 -1 12 -10 15 -10 4 -13 2 -9 -7 4
-6 0 -4 -8 5 -8 10 -17 15 -20 11 -4 -3 -7 -1 -7 6 0 7 -4 9 -10 6 -6 -3 -10
-1 -10 4 0 6 -9 11 -21 11 -13 0 -18 4 -13 13 5 7 0 6 -11 -3 -15 -12 -17 -12
-10 -1 6 11 3 13 -13 9 -12 -4 -20 -2 -17 2 3 5 1 11 -5 15 -5 3 -10 1 -10 -6
0 -8 -4 -9 -13 0 -10 8 -17 7 -25 -1 -9 -9 -10 -6 -7 13 4 21 3 22 -8 8 -10
-13 -18 -14 -37 -6 -42 16 -62 16 -55 -2 5 -12 3 -13 -6 -4 -6 6 -18 9 -27 6
-11 -5 -13 -2 -8 8 4 8 1 6 -7 -3 -14 -18 -33 -25 -23 -10 3 5 -5 8 -16 7 -12
-1 -24 -7 -26 -13 -2 -7 -10 -12 -18 -12 -9 0 -13 5 -9 13 4 6 1 5 -7 -4 -13
-16 -19 -19 -39 -19 -5 0 -8 -4 -5 -9 3 -4 -6 -6 -19 -3 -15 2 -25 0 -25 -7 0
-7 -5 -9 -12 -5 -7 5 -9 2 -6 -8 5 -12 0 -15 -22 -13 -22 2 -27 -1 -22 -13 3
-9 1 -13 -5 -9 -6 4 -14 0 -17 -9 -4 -9 -9 -14 -12 -11 -4 3 -14 -2 -23 -11
-9 -10 -12 -12 -7 -5 5 8 4 13 -3 13 -6 0 -11 -4 -11 -10 0 -5 -9 -18 -21 -29
-12 -11 -18 -24 -15 -29 4 -6 -3 -8 -15 -5 -19 5 -21 3 -17 -20 4 -18 1 -24
-9 -20 -7 3 -10 10 -6 16 4 6 1 7 -6 3 -7 -5 -10 -14 -7 -22 3 -8 2 -14 -3
-14 -5 0 -11 -10 -14 -21 -4 -14 -11 -20 -21 -16 -10 4 -13 1 -9 -9 3 -8 -1
-14 -8 -14 -11 0 -11 -3 1 -10 12 -8 10 -10 -10 -10 -20 0 -22 -2 -10 -10 13
-8 13 -10 -2 -10 -11 0 -15 -5 -12 -15 4 -8 2 -15 -4 -15 -5 0 -12 -9 -15 -21
-3 -12 -10 -18 -16 -15 -11 7 -25 -29 -16 -44 4 -6 3 -10 -2 -9 -14 4 -43 -13
-38 -21 3 -4 -2 -10 -10 -14 -8 -3 -15 -13 -15 -23 0 -16 -2 -16 -11 -3 -9 12
-10 11 -6 -7 3 -12 2 -22 -2 -21 -27 3 -33 -2 -20 -19 11 -13 11 -15 1 -9 -16
10 -52 -20 -52 -43 0 -13 -2 -13 -9 -3 -7 11 -10 10 -15 -3 -3 -9 -3 -22 1
-28 4 -7 -2 -5 -12 3 -11 9 -16 10 -11 3 4 -8 2 -13 -4 -13 -6 0 -8 -5 -4 -12
4 -7 3 -8 -5 -4 -6 4 -14 1 -17 -8 -3 -9 -12 -12 -21 -9 -12 5 -14 3 -8 -7 6
-10 2 -12 -18 -8 -20 4 -24 1 -20 -11 4 -11 0 -9 -10 4 -9 11 -17 25 -17 32 0
7 -7 10 -15 7 -11 -5 -13 -2 -9 10 4 11 2 16 -7 14 -8 -2 -13 3 -11 11 3 12 0
12 -12 2 -12 -10 -16 -8 -21 8 -3 12 -11 21 -16 21 -6 0 -7 5 -3 12 5 7 3 8
-5 3 -8 -4 -19 1 -28 15 -9 13 -21 19 -31 15 -9 -3 -13 -3 -10 1 8 7 -37 54
-52 54 -6 0 -8 5 -5 10 3 6 -3 10 -15 10 -12 0 -18 5 -15 10 3 6 -1 10 -9 10
-9 0 -16 5 -16 11 0 14 -41 48 -58 49 -7 0 -11 4 -7 9 3 5 -4 13 -16 16 -17 6
-19 9 -8 17 10 7 8 9 -8 5 -16 -4 -21 -1 -18 12 2 12 -5 17 -25 19 -16 1 -32
-3 -35 -8 -5 -8 -11 -8 -20 0 -10 8 -15 8 -21 -1 -5 -8 -3 -9 6 -4 9 5 11 4 6
-4 -6 -9 -11 -9 -21 -1 -10 8 -15 8 -21 -1 -5 -8 -3 -9 6 -4 9 6 11 4 5 -4 -4
-7 -18 -11 -30 -9 -18 4 -22 1 -17 -10 3 -10 1 -13 -6 -8 -6 3 -13 2 -16 -2
-3 -5 -17 -8 -31 -7 -14 2 -25 0 -25 -4 0 -4 -16 -7 -36 -8 -20 0 -40 -6 -44
-13 -6 -9 -9 -9 -13 1 -4 10 -6 10 -6 2 -1 -7 -6 -13 -12 -13 -5 0 -7 6 -3 13
5 8 2 8 -9 -2 -12 -9 -17 -10 -17 -2 0 7 -5 9 -10 6 -6 -4 -8 -10 -6 -13 2 -4
-18 -7 -46 -6 -30 2 -54 8 -59 16 -5 8 -9 9 -9 2 0 -7 -9 -14 -20 -17 -11 -3
-18 -1 -15 3 3 5 1 11 -5 15 -5 3 -10 -1 -10 -9 0 -9 -4 -16 -10 -16 -5 0 -9
3 -9 8 3 19 -2 23 -16 12 -12 -10 -15 -10 -15 0 0 10 -3 10 -15 0 -14 -12 -19
-7 -16 15 1 6 -5 2 -12 -7 -16 -20 -28 -14 -20 10 3 11 2 13 -4 6 -14 -19 -98
0 -86 20 4 6 -1 5 -11 -3 -14 -12 -19 -12 -26 -2 -5 8 -13 10 -21 5 -10 -6
-10 -3 1 11 14 17 14 18 -7 6 -17 -9 -23 -9 -23 0 0 6 -7 9 -15 5 -9 -3 -15 0
-15 9 0 18 -16 20 -24 3 -4 -7 -4 -2 -2 10 3 13 2 21 -1 18 -4 -3 -18 1 -32
11 -24 15 -25 15 -12 0 8 -10 9 -17 3 -17 -6 0 -14 9 -17 20 -4 11 -11 18 -16
15 -5 -4 -9 -1 -9 5 0 7 -7 9 -17 6 -10 -4 -14 -4 -10 0 12 13 -24 45 -38 34
-9 -8 -12 -4 -10 15 2 13 0 24 -3 23 -4 -1 -17 3 -28 10 -12 6 -24 9 -27 6 -3
-3 -3 4 0 16 5 17 2 21 -12 18 -13 -2 -21 5 -25 22 -4 14 -13 24 -20 22 -8 -2
-10 3 -6 15 4 9 4 14 0 11 -9 -9 -34 17 -34 35 0 8 -11 22 -25 31 -14 9 -23
21 -20 26 4 6 2 10 -4 10 -6 0 -8 7 -5 15 4 8 2 15 -4 15 -5 0 -13 7 -16 16
-3 8 -2 13 2 10 5 -3 9 1 9 9 0 8 -4 12 -9 9 -4 -3 -8 0 -8 6 0 6 -4 9 -8 6
-4 -2 -8 8 -7 22 0 18 -5 26 -14 24 -12 -3 -12 0 -1 12 10 13 10 16 0 16 -9 0
-9 4 1 17 10 11 10 14 2 9 -8 -4 -13 -2 -13 4 0 6 -5 8 -12 4 -7 -4 -8 -3 -4
5 4 6 12 9 17 6 5 -3 6 1 3 9 -3 9 -11 16 -17 16 -8 0 -8 3 0 11 12 12 5 52
-7 44 -5 -3 -12 0 -16 6 -5 8 -3 9 5 4 16 -9 13 63 -3 84 -8 11 -8 13 0 8 7
-4 12 2 12 18 0 16 -5 22 -12 18 -6 -4 -5 1 3 10 7 9 11 17 8 17 -3 0 -2 14 3
30 5 19 5 28 -1 25 -16 -11 -10 7 9 22 9 8 11 12 5 8 -16 -8 -17 7 -1 23 9 9
9 12 -2 12 -13 0 -13 2 0 10 11 7 11 10 2 10 -7 0 -10 5 -7 10 4 6 12 7 18 3
7 -4 6 0 -2 10 -11 13 -11 17 -1 17 8 0 10 3 7 7 -4 3 1 15 10 25 16 18 16 19
-3 13 -18 -6 -18 -6 -2 8 14 11 15 16 5 26 -8 9 -9 11 -1 9 7 -2 12 1 12 7 0
5 9 12 19 16 17 7 16 8 -2 9 -19 1 -19 1 -2 11 9 6 15 14 12 20 -4 5 2 9 12
10 10 0 13 3 6 5 -8 4 -6 11 8 25 10 10 19 26 19 35 0 9 5 12 13 8 7 -5 7 -1
-3 12 -8 10 -11 16 -6 12 10 -8 29 9 39 35 4 10 12 15 17 12 6 -4 10 -3 9 2
-4 21 3 32 20 38 11 3 23 15 26 26 4 11 11 16 17 13 7 -5 9 -1 5 9 -4 11 -1
17 9 17 9 0 12 5 8 12 -4 7 -3 8 5 4 7 -5 25 7 46 29 19 20 32 28 29 18 -6
-16 -5 -16 7 -3 8 8 21 21 29 29 11 10 11 12 1 6 -9 -5 -12 -4 -8 3 4 5 15 9
25 8 9 -2 23 4 30 13 11 13 12 13 7 1 -4 -8 2 -4 13 9 15 18 21 21 25 10 4
-10 6 -8 6 5 1 16 3 17 18 5 14 -12 16 -12 8 0 -6 11 -4 13 9 8 10 -4 15 -3
11 3 -3 6 -1 10 5 10 6 0 8 5 4 13 -5 8 -2 8 9 -2 14 -11 17 -11 17 0 0 11 2
11 10 -1 6 -10 10 -11 10 -2 0 6 5 12 11 12 5 0 7 -6 3 -12 -4 -7 3 -3 15 10
22 22 37 30 27 14 -3 -5 1 -9 9 -9 8 0 11 5 8 10 -4 6 0 8 10 4 10 -3 17 -3
17 1 0 4 21 5 46 3 37 -2 45 0 38 10 -6 11 -5 12 7 2 12 -10 18 -10 27 -1 9 9
12 9 12 -3 0 -12 2 -12 10 1 8 12 10 12 10 1 0 -11 3 -11 15 -1 10 8 15 9 15
2 0 -6 7 -9 15 -6 8 4 12 11 8 17 -3 6 -1 7 6 3 6 -4 9 -11 6 -16 -3 -4 2 -10
10 -13 10 -4 12 -1 7 11 -5 15 -3 15 22 -2 16 -10 26 -14 22 -8 -3 5 1 13 10
16 24 9 31 7 14 -5 -12 -8 -9 -10 12 -6 21 3 25 1 20 -12 -5 -14 -3 -14 11 -2
9 7 17 9 17 4 0 -6 11 -9 25 -8 16 2 23 -1 18 -8 -4 -6 0 -8 10 -4 10 4 17 2
17 -4 0 -6 9 -9 20 -6 14 4 20 0 20 -11 0 -15 2 -15 10 -2 8 12 10 12 10 1 0
-11 3 -11 17 0 15 12 16 12 10 -4 -6 -15 -3 -17 13 -12 15 5 20 2 20 -12 0
-15 2 -16 10 -3 8 12 10 12 10 -5 0 -11 4 -15 8 -10 4 6 13 11 21 13 12 3 12
0 2 -12 -11 -13 -10 -15 8 -11 15 3 21 -1 21 -13 1 -15 2 -15 11 1 6 9 15 14
21 11 7 -5 9 -2 5 8 -4 12 0 14 16 10 12 -3 19 -2 15 3 -8 9 14 35 25 28 4 -2
7 3 7 11 0 9 7 16 16 16 9 0 12 5 8 12 -5 8 -2 9 10 5 11 -5 15 -3 10 5 -5 8
-2 9 10 5 9 -4 15 -3 11 2 -7 13 5 42 16 36 4 -3 18 4 29 15 11 11 26 18 32
14 6 -4 9 -1 6 7 -3 8 -11 13 -17 11 -7 -1 -10 2 -6 7 4 7 15 7 32 0 24 -9 25
-8 12 8 -9 11 -10 14 -1 9 7 -4 12 -2 12 4 0 6 5 8 12 4 8 -5 9 -2 5 10 -4 10
-3 15 3 11 6 -3 10 -1 10 5 0 6 5 8 12 4 8 -5 9 -2 4 11 -5 15 -4 16 9 5 14
-11 19 -7 16 12 0 4 7 4 16 1 10 -4 14 -2 10 4 -4 6 1 17 10 24 11 10 14 10 9
2 -5 -9 -2 -11 9 -7 13 5 13 9 3 22 -11 13 -11 14 1 7 9 -5 20 0 33 16 11 13
16 18 12 10 -5 -10 -3 -12 5 -7 7 5 10 14 7 22 -3 7 0 16 6 20 6 4 8 3 4 -4
-10 -16 13 -26 29 -12 12 10 13 8 10 -9 -2 -13 1 -18 9 -15 15 6 58 -30 48
-40 -4 -4 -2 -7 3 -6 22 5 45 -1 45 -11 0 -5 -4 -7 -10 -4 -5 3 -10 2 -10 -4
0 -6 11 -13 25 -17 14 -4 24 -9 21 -12 -3 -2 8 -17 24 -32 16 -15 26 -30 23
-34 -3 -3 1 -6 10 -6 10 0 16 -6 15 -12 -2 -7 4 -12 13 -12 11 1 15 -6 13 -22
-1 -13 2 -22 6 -19 12 7 41 -36 33 -49 -4 -6 0 -5 9 2 14 11 16 10 11 -9 -4
-15 -3 -20 5 -15 8 5 12 -2 13 -21 0 -15 3 -22 6 -15 2 6 9 12 14 12 6 0 7 -5
4 -10 -7 -11 36 -75 64 -96 9 -7 11 -16 6 -25 -8 -12 -6 -12 9 0 9 8 16 10 15
5 -4 -21 2 -35 11 -29 6 3 10 -1 10 -9 0 -15 12 -21 33 -17 5 1 5 -3 2 -10 -8
-11 21 -42 45 -47 7 -2 21 -12 31 -23 9 -10 23 -19 30 -19 8 0 21 -9 29 -20
10 -14 17 -16 27 -8 9 7 14 6 19 -5 3 -9 12 -13 21 -10 10 4 14 2 10 -4 -3 -5
0 -10 8 -10 8 0 12 4 9 9 -3 4 0 8 5 8 6 0 11 -6 11 -14 0 -8 9 -12 25 -11 14
2 25 -1 25 -7 0 -6 6 -5 15 2 12 10 15 10 15 0 0 -9 4 -9 17 1 9 8 14 9 10 3
-4 -7 2 -11 18 -11 15 0 22 4 18 11 -4 7 -2 7 7 -1 7 -6 19 -9 28 -6 10 4 13
2 8 -5 -5 -8 -2 -10 8 -6 9 3 13 11 10 16 -4 6 3 5 15 -1 17 -10 22 -9 28 4 4
12 8 13 13 5 5 -8 12 -7 24 5 9 9 16 12 16 6 0 -6 5 -11 11 -11 6 0 9 6 6 13
-3 9 4 12 24 11 16 -1 32 2 35 7 3 5 10 6 16 3 6 -4 8 -2 5 3 -4 6 1 17 10 24
9 8 14 9 10 3 -4 -7 0 -14 8 -17 9 -4 12 -1 8 9 -3 9 1 14 14 14 10 0 29 14
43 30 14 17 30 30 37 30 7 0 13 5 13 10 0 6 7 10 16 10 8 0 12 5 9 10 -3 6 -1
10 5 10 6 0 8 5 5 10 -3 6 2 10 11 10 10 0 15 3 11 6 -10 11 22 36 35 28 9 -6
9 -3 -1 9 -12 15 -9 21 11 18 4 0 5 5 2 13 -3 8 0 17 5 21 6 3 8 12 4 18 -4 8
-1 7 9 -1 14 -11 16 -10 13 5 -1 10 5 27 14 37 9 11 11 16 4 13 -8 -5 -8 -1 0
18 7 14 16 25 20 25 5 0 5 5 2 10 -4 6 -11 7 -17 4 -7 -5 -8 -2 -4 5 5 7 15
10 25 6 12 -5 13 -3 5 5 -7 7 -9 24 -5 43 10 48 6 198 -6 205 -5 4 -9 24 -9
44 1 24 -3 39 -12 43 -11 4 -12 8 -2 20 9 11 9 15 1 15 -7 0 -11 6 -9 13 1 6
-8 31 -20 53 -11 23 -18 44 -15 48 6 5 -12 10 -29 7 -4 0 -5 6 -2 14 4 8 1 15
-6 15 -6 0 -8 5 -5 11 4 6 -1 17 -11 25 -18 13 -18 14 1 8 20 -7 20 -7 0 9
-15 11 -22 12 -27 4 -6 -9 -8 -9 -8 0 0 6 4 15 10 18 6 4 5 11 -3 19 -6 8 -15
12 -19 10 -3 -2 -5 7 -3 21 2 22 0 23 -13 13 -11 -9 -14 -9 -9 -1 4 6 3 14 -3
18 -6 4 -7 11 -4 17 4 6 2 8 -4 4 -6 -3 -13 3 -17 14 -4 11 -9 18 -13 16 -4
-2 -16 8 -26 23 l-20 26 24 -20 24 -20 -24 31 c-14 17 -27 30 -29 28 -5 -4
-31 23 -31 32 0 4 -8 13 -17 21 -10 8 -13 12 -6 9 6 -4 14 -3 17 2 2 4 -5 9
-16 9 -12 1 -28 10 -37 19 -15 17 -15 17 4 4 13 -9 12 -5 -5 12 -14 14 -28 23
-32 21 -5 -2 -8 5 -8 16 0 12 -3 20 -7 20 -21 -3 -33 2 -33 16 0 8 -5 15 -11
15 -5 0 -7 5 -3 12 5 8 2 9 -10 5 -10 -4 -15 -3 -11 3 3 6 -1 13 -9 16 -9 3
-13 10 -10 15 3 5 -2 6 -10 3 -15 -6 -21 6 -16 31 1 6 -1 7 -5 3 -4 -3 -23 10
-42 30 -20 21 -32 30 -27 22 7 -13 6 -13 -9 -1 -9 7 -17 20 -17 27 0 8 -6 11
-17 7 -10 -3 -15 -3 -11 2 9 10 -12 30 -39 39 -12 4 -24 14 -27 22 -3 8 -10
12 -16 9 -5 -3 -10 1 -10 10 0 9 -4 13 -10 10 -5 -3 -10 -1 -10 5 0 6 -4 8
-10 5 -5 -3 -10 1 -10 9 0 9 -3 15 -7 15 -20 -3 -34 2 -28 11 3 6 -2 10 -12
10 -21 1 -55 24 -47 33 3 3 -4 8 -15 12 -12 3 -19 11 -16 16 3 5 -1 6 -9 3 -9
-4 -16 -1 -16 6 0 7 -7 10 -15 7 -8 -4 -17 -1 -21 5 -5 7 -2 8 6 3 9 -5 11 -4
6 3 -4 7 -15 12 -25 12 -9 0 -30 13 -45 29 -16 16 -35 27 -42 24 -9 -3 -14 2
-14 13 0 14 -3 15 -12 6 -9 -9 -17 -6 -34 13 -15 16 -24 20 -27 12 -3 -7 -6
-3 -6 8 -1 17 -3 17 -11 5 -8 -12 -10 -10 -10 10 0 18 -3 21 -9 12 -7 -12 -12
-12 -30 -1 -11 8 -21 17 -21 22 0 4 -4 6 -9 2 -6 -3 -14 3 -20 12 -6 11 -11
13 -11 5 0 -7 -5 -10 -10 -7 -6 4 -8 10 -5 14 2 5 -7 6 -22 3 -20 -4 -24 -2
-18 8 6 10 4 12 -8 7 -9 -3 -23 1 -31 9 -9 8 -18 15 -21 14 -21 -1 -25 2 -19
13 5 8 2 8 -9 -2 -12 -9 -17 -10 -17 -2 0 7 -4 10 -9 6 -5 -3 -17 2 -25 11
-12 11 -16 12 -16 2 0 -9 -3 -9 -8 -2 -4 6 -18 17 -32 24 -24 13 -24 12 -10
-6 14 -18 14 -18 -4 -4 -10 8 -25 15 -34 16 -8 2 -18 8 -22 15 -5 6 -15 9 -24
6 -11 -4 -16 -1 -17 11 0 11 -2 12 -6 4 -4 -10 -8 -10 -21 0 -10 8 -13 8 -9 1
5 -7 0 -9 -13 -6 -11 3 -17 9 -14 14 3 5 -2 6 -10 3 -10 -4 -16 -1 -16 7 0 11
-3 11 -10 -1 -9 -13 -10 -13 -10 0 0 12 -2 12 -9 2 -7 -11 -9 -10 -15 3 -3 9
-11 13 -16 10 -6 -4 -18 -1 -27 7 -12 9 -15 9 -9 1 4 -7 2 -13 -3 -13 -6 0
-11 5 -11 11 0 6 -9 9 -20 6 -12 -3 -24 1 -30 11 -8 15 -9 15 -10 -2 0 -20 0
-20 -16 0 -8 10 -13 13 -9 7 3 -7 1 -13 -4 -13 -6 0 -11 4 -11 9 0 5 -7 12
-16 15 -8 3 -13 2 -10 -3 3 -5 -1 -12 -9 -15 -9 -3 -18 1 -22 9 -4 12 -9 13
-18 5 -10 -8 -15 -8 -21 1 -5 8 -3 9 6 4 9 -5 11 -4 6 4 -4 6 -13 8 -19 4 -21
-13 -35 -11 -41 4 -5 12 -9 13 -21 3 -8 -7 -15 -9 -15 -5 0 4 -8 1 -17 -6 -9
-8 -14 -9 -10 -3 5 8 -6 13 -33 16 -22 2 -42 -1 -44 -7 -2 -5 -5 -1 -5 10 -1
17 -3 18 -12 5 -8 -12 -12 -12 -16 -2 -4 10 -9 9 -19 -5 -13 -17 -14 -17 -8 2
6 16 5 18 -7 8 -16 -16 -33 -17 -24 -3 8 13 -18 8 -27 -5 -5 -6 -8 -4 -8 5 0
13 -1 13 -10 0 -9 -13 -10 -13 -10 0 0 13 -1 13 -10 0 -9 -13 -10 -13 -10 0 0
13 -1 13 -10 0 -6 -10 -10 -11 -10 -2 0 6 -7 12 -15 12 -8 0 -15 -6 -15 -12 0
-9 -3 -9 -8 -3 -8 13 -22 13 -41 1 -11 -7 -12 -6 -6 5 8 12 6 12 -8 0 -14 -11
-17 -11 -17 0 0 8 -5 6 -13 -6 -11 -14 -16 -15 -22 -5 -6 9 -4 11 5 5 9 -5 11
-4 6 4 -5 8 -13 7 -29 -4 -19 -13 -23 -13 -39 2 -18 16 -18 16 -12 0z m819
-3537 c3 -5 1 -10 -4 -10 -6 0 -11 5 -11 10 0 6 2 10 4 10 3 0 8 -4 11 -10z
m-3018 -346 c-3 -3 -12 -4 -19 -1 -8 3 -5 6 6 6 11 1 17 -2 13 -5z"/>
<path d="M4797 4979 c7 -7 15 -10 18 -7 3 3 -2 9 -12 12 -14 6 -15 5 -6 -5z"/>
<path d="M3430 3656 c0 -2 8 -10 18 -17 15 -13 16 -12 3 4 -13 16 -21 21 -21
13z"/>
<path d="M4596 2842 c-3 -5 1 -9 9 -9 8 0 12 4 9 9 -3 4 -7 8 -9 8 -2 0 -6 -4
-9 -8z"/>
</g>
</svg>
